<mxfile host="app.diagrams.net" modified="2024-03-08T09:22:17.077Z" agent="Mozilla/5.0 (Windows NT 10.0; Win64; x64) AppleWebKit/537.36 (KHTML, like Gecko) Chrome/121.0.0.0 Safari/537.36 OPR/107.0.0.0" etag="GtCk9HEScHwgnF9Dpczd" version="24.0.2" type="google">
  <diagram id="C5RBs43oDa-KdzZeNtuy" name="Page-1">
    <mxGraphModel dx="1211" dy="3004" grid="1" gridSize="10" guides="1" tooltips="1" connect="1" arrows="1" fold="1" page="1" pageScale="1" pageWidth="827" pageHeight="1169" math="0" shadow="0">
      <root>
        <mxCell id="WIyWlLk6GJQsqaUBKTNV-0" />
        <mxCell id="WIyWlLk6GJQsqaUBKTNV-1" parent="WIyWlLk6GJQsqaUBKTNV-0" />
        <mxCell id="WIyWlLk6GJQsqaUBKTNV-2" value="" style="rounded=0;html=1;jettySize=auto;orthogonalLoop=1;fontSize=11;endArrow=block;endFill=0;endSize=8;strokeWidth=1;shadow=0;labelBackgroundColor=none;edgeStyle=orthogonalEdgeStyle;" parent="WIyWlLk6GJQsqaUBKTNV-1" source="WIyWlLk6GJQsqaUBKTNV-3" target="WIyWlLk6GJQsqaUBKTNV-6" edge="1">
          <mxGeometry relative="1" as="geometry" />
        </mxCell>
        <mxCell id="WIyWlLk6GJQsqaUBKTNV-3" value="User Login" style="rounded=1;whiteSpace=wrap;html=1;fontSize=12;glass=0;strokeWidth=1;shadow=0;" parent="WIyWlLk6GJQsqaUBKTNV-1" vertex="1">
          <mxGeometry x="160" y="80" width="120" height="40" as="geometry" />
        </mxCell>
        <mxCell id="WIyWlLk6GJQsqaUBKTNV-4" value="Yes" style="rounded=0;html=1;jettySize=auto;orthogonalLoop=1;fontSize=11;endArrow=block;endFill=0;endSize=8;strokeWidth=1;shadow=0;labelBackgroundColor=none;edgeStyle=orthogonalEdgeStyle;" parent="WIyWlLk6GJQsqaUBKTNV-1" source="WIyWlLk6GJQsqaUBKTNV-6" edge="1">
          <mxGeometry y="20" relative="1" as="geometry">
            <mxPoint as="offset" />
            <mxPoint x="220" y="290" as="targetPoint" />
          </mxGeometry>
        </mxCell>
        <mxCell id="WIyWlLk6GJQsqaUBKTNV-5" value="No" style="edgeStyle=orthogonalEdgeStyle;rounded=0;html=1;jettySize=auto;orthogonalLoop=1;fontSize=11;endArrow=block;endFill=0;endSize=8;strokeWidth=1;shadow=0;labelBackgroundColor=none;" parent="WIyWlLk6GJQsqaUBKTNV-1" source="WIyWlLk6GJQsqaUBKTNV-6" target="WIyWlLk6GJQsqaUBKTNV-7" edge="1">
          <mxGeometry y="10" relative="1" as="geometry">
            <mxPoint as="offset" />
          </mxGeometry>
        </mxCell>
        <mxCell id="WIyWlLk6GJQsqaUBKTNV-6" value="Does the User&lt;div&gt;have an account&lt;/div&gt;" style="rhombus;whiteSpace=wrap;html=1;shadow=0;fontFamily=Helvetica;fontSize=12;align=center;strokeWidth=1;spacing=6;spacingTop=-4;" parent="WIyWlLk6GJQsqaUBKTNV-1" vertex="1">
          <mxGeometry x="160" y="170" width="120" height="100" as="geometry" />
        </mxCell>
        <mxCell id="yaYKkfdY-jvWyKNpZxuY-5" style="edgeStyle=orthogonalEdgeStyle;rounded=0;orthogonalLoop=1;jettySize=auto;html=1;exitX=0.5;exitY=1;exitDx=0;exitDy=0;entryX=0.5;entryY=0;entryDx=0;entryDy=0;" parent="WIyWlLk6GJQsqaUBKTNV-1" source="WIyWlLk6GJQsqaUBKTNV-7" target="yaYKkfdY-jvWyKNpZxuY-4" edge="1">
          <mxGeometry relative="1" as="geometry" />
        </mxCell>
        <mxCell id="WIyWlLk6GJQsqaUBKTNV-7" value="Create account" style="rounded=1;whiteSpace=wrap;html=1;fontSize=12;glass=0;strokeWidth=1;shadow=0;" parent="WIyWlLk6GJQsqaUBKTNV-1" vertex="1">
          <mxGeometry x="320" y="200" width="120" height="40" as="geometry" />
        </mxCell>
        <mxCell id="-sRBkVnqVRmcKS87IUBA-3" style="edgeStyle=orthogonalEdgeStyle;rounded=0;orthogonalLoop=1;jettySize=auto;html=1;exitX=0.5;exitY=1;exitDx=0;exitDy=0;entryX=0.5;entryY=0;entryDx=0;entryDy=0;" parent="WIyWlLk6GJQsqaUBKTNV-1" source="WIyWlLk6GJQsqaUBKTNV-11" target="-sRBkVnqVRmcKS87IUBA-2" edge="1">
          <mxGeometry relative="1" as="geometry" />
        </mxCell>
        <mxCell id="WIyWlLk6GJQsqaUBKTNV-11" value="Login" style="rounded=1;whiteSpace=wrap;html=1;fontSize=12;glass=0;strokeWidth=1;shadow=0;" parent="WIyWlLk6GJQsqaUBKTNV-1" vertex="1">
          <mxGeometry x="160" y="290" width="120" height="40" as="geometry" />
        </mxCell>
        <mxCell id="-sRBkVnqVRmcKS87IUBA-4" style="edgeStyle=orthogonalEdgeStyle;rounded=0;orthogonalLoop=1;jettySize=auto;html=1;exitX=0;exitY=0.5;exitDx=0;exitDy=0;entryX=0.5;entryY=1;entryDx=0;entryDy=0;" parent="WIyWlLk6GJQsqaUBKTNV-1" source="-sRBkVnqVRmcKS87IUBA-2" target="yaYKkfdY-jvWyKNpZxuY-1" edge="1">
          <mxGeometry relative="1" as="geometry">
            <mxPoint x="110" y="425" as="targetPoint" />
          </mxGeometry>
        </mxCell>
        <mxCell id="yaYKkfdY-jvWyKNpZxuY-0" value="no" style="edgeLabel;html=1;align=center;verticalAlign=middle;resizable=0;points=[];" parent="-sRBkVnqVRmcKS87IUBA-4" connectable="0" vertex="1">
          <mxGeometry x="-0.3677" y="-3" relative="1" as="geometry">
            <mxPoint x="7" y="14" as="offset" />
          </mxGeometry>
        </mxCell>
        <mxCell id="yaYKkfdY-jvWyKNpZxuY-10" style="edgeStyle=orthogonalEdgeStyle;rounded=0;orthogonalLoop=1;jettySize=auto;html=1;exitX=0.5;exitY=1;exitDx=0;exitDy=0;entryX=0.5;entryY=0;entryDx=0;entryDy=0;" parent="WIyWlLk6GJQsqaUBKTNV-1" source="-sRBkVnqVRmcKS87IUBA-2" target="yaYKkfdY-jvWyKNpZxuY-9" edge="1">
          <mxGeometry relative="1" as="geometry" />
        </mxCell>
        <mxCell id="yaYKkfdY-jvWyKNpZxuY-11" value="yes" style="edgeLabel;html=1;align=center;verticalAlign=middle;resizable=0;points=[];" parent="yaYKkfdY-jvWyKNpZxuY-10" connectable="0" vertex="1">
          <mxGeometry x="-0.2" y="2" relative="1" as="geometry">
            <mxPoint x="18" as="offset" />
          </mxGeometry>
        </mxCell>
        <mxCell id="-sRBkVnqVRmcKS87IUBA-2" value="are the credentials correct?" style="rhombus;whiteSpace=wrap;html=1;" parent="WIyWlLk6GJQsqaUBKTNV-1" vertex="1">
          <mxGeometry x="160" y="370" width="120" height="110" as="geometry" />
        </mxCell>
        <mxCell id="yaYKkfdY-jvWyKNpZxuY-2" style="edgeStyle=orthogonalEdgeStyle;rounded=0;orthogonalLoop=1;jettySize=auto;html=1;exitX=0.5;exitY=0;exitDx=0;exitDy=0;entryX=0;entryY=0.5;entryDx=0;entryDy=0;" parent="WIyWlLk6GJQsqaUBKTNV-1" source="yaYKkfdY-jvWyKNpZxuY-1" target="WIyWlLk6GJQsqaUBKTNV-11" edge="1">
          <mxGeometry relative="1" as="geometry" />
        </mxCell>
        <mxCell id="yaYKkfdY-jvWyKNpZxuY-1" value="Invalid Username or Password" style="rounded=1;whiteSpace=wrap;html=1;fontSize=12;glass=0;strokeWidth=1;shadow=0;" parent="WIyWlLk6GJQsqaUBKTNV-1" vertex="1">
          <mxGeometry x="20" y="340" width="120" height="40" as="geometry" />
        </mxCell>
        <mxCell id="yaYKkfdY-jvWyKNpZxuY-7" style="edgeStyle=orthogonalEdgeStyle;rounded=0;orthogonalLoop=1;jettySize=auto;html=1;exitX=0.5;exitY=0;exitDx=0;exitDy=0;entryX=1;entryY=0.5;entryDx=0;entryDy=0;" parent="WIyWlLk6GJQsqaUBKTNV-1" source="yaYKkfdY-jvWyKNpZxuY-3" target="WIyWlLk6GJQsqaUBKTNV-7" edge="1">
          <mxGeometry relative="1" as="geometry" />
        </mxCell>
        <mxCell id="yaYKkfdY-jvWyKNpZxuY-3" value="Error message" style="rounded=1;whiteSpace=wrap;html=1;fontSize=12;glass=0;strokeWidth=1;shadow=0;" parent="WIyWlLk6GJQsqaUBKTNV-1" vertex="1">
          <mxGeometry x="480" y="290" width="120" height="40" as="geometry" />
        </mxCell>
        <mxCell id="yaYKkfdY-jvWyKNpZxuY-6" value="no" style="edgeStyle=orthogonalEdgeStyle;rounded=0;orthogonalLoop=1;jettySize=auto;html=1;exitX=1;exitY=0.5;exitDx=0;exitDy=0;entryX=0;entryY=0.5;entryDx=0;entryDy=0;" parent="WIyWlLk6GJQsqaUBKTNV-1" source="yaYKkfdY-jvWyKNpZxuY-4" target="yaYKkfdY-jvWyKNpZxuY-3" edge="1">
          <mxGeometry y="15" relative="1" as="geometry">
            <mxPoint as="offset" />
          </mxGeometry>
        </mxCell>
        <mxCell id="yaYKkfdY-jvWyKNpZxuY-8" value="yes" style="edgeStyle=orthogonalEdgeStyle;rounded=0;orthogonalLoop=1;jettySize=auto;html=1;exitX=0;exitY=0.5;exitDx=0;exitDy=0;entryX=1;entryY=0.5;entryDx=0;entryDy=0;" parent="WIyWlLk6GJQsqaUBKTNV-1" source="yaYKkfdY-jvWyKNpZxuY-4" target="WIyWlLk6GJQsqaUBKTNV-11" edge="1">
          <mxGeometry y="-10" relative="1" as="geometry">
            <mxPoint as="offset" />
          </mxGeometry>
        </mxCell>
        <mxCell id="yaYKkfdY-jvWyKNpZxuY-4" value="is the credentials vallid" style="rhombus;whiteSpace=wrap;html=1;" parent="WIyWlLk6GJQsqaUBKTNV-1" vertex="1">
          <mxGeometry x="320" y="255" width="120" height="110" as="geometry" />
        </mxCell>
        <mxCell id="yaYKkfdY-jvWyKNpZxuY-13" value="no" style="edgeStyle=orthogonalEdgeStyle;rounded=0;orthogonalLoop=1;jettySize=auto;html=1;exitX=0.5;exitY=1;exitDx=0;exitDy=0;entryX=0.5;entryY=0;entryDx=0;entryDy=0;" parent="WIyWlLk6GJQsqaUBKTNV-1" source="yaYKkfdY-jvWyKNpZxuY-9" target="yaYKkfdY-jvWyKNpZxuY-12" edge="1">
          <mxGeometry y="10" relative="1" as="geometry">
            <mxPoint as="offset" />
          </mxGeometry>
        </mxCell>
        <mxCell id="yaYKkfdY-jvWyKNpZxuY-15" value="yes" style="edgeStyle=orthogonalEdgeStyle;rounded=0;orthogonalLoop=1;jettySize=auto;html=1;exitX=1;exitY=0.5;exitDx=0;exitDy=0;entryX=0;entryY=0.5;entryDx=0;entryDy=0;" parent="WIyWlLk6GJQsqaUBKTNV-1" source="yaYKkfdY-jvWyKNpZxuY-9" target="yaYKkfdY-jvWyKNpZxuY-14" edge="1">
          <mxGeometry y="10" relative="1" as="geometry">
            <mxPoint as="offset" />
          </mxGeometry>
        </mxCell>
        <mxCell id="yaYKkfdY-jvWyKNpZxuY-9" value="does the user have a page" style="rhombus;whiteSpace=wrap;html=1;" parent="WIyWlLk6GJQsqaUBKTNV-1" vertex="1">
          <mxGeometry x="160" y="510" width="120" height="120" as="geometry" />
        </mxCell>
        <mxCell id="yaYKkfdY-jvWyKNpZxuY-25" style="edgeStyle=orthogonalEdgeStyle;rounded=0;orthogonalLoop=1;jettySize=auto;html=1;exitX=1;exitY=0.5;exitDx=0;exitDy=0;entryX=0.5;entryY=1;entryDx=0;entryDy=0;" parent="WIyWlLk6GJQsqaUBKTNV-1" source="yaYKkfdY-jvWyKNpZxuY-12" target="yaYKkfdY-jvWyKNpZxuY-18" edge="1">
          <mxGeometry relative="1" as="geometry">
            <mxPoint x="670" y="180" as="targetPoint" />
          </mxGeometry>
        </mxCell>
        <mxCell id="yaYKkfdY-jvWyKNpZxuY-44" style="edgeStyle=orthogonalEdgeStyle;rounded=0;orthogonalLoop=1;jettySize=auto;html=1;exitX=0.5;exitY=1;exitDx=0;exitDy=0;entryX=0.5;entryY=0;entryDx=0;entryDy=0;" parent="WIyWlLk6GJQsqaUBKTNV-1" source="yaYKkfdY-jvWyKNpZxuY-12" target="yaYKkfdY-jvWyKNpZxuY-43" edge="1">
          <mxGeometry relative="1" as="geometry" />
        </mxCell>
        <mxCell id="yaYKkfdY-jvWyKNpZxuY-12" value="template page" style="rounded=1;whiteSpace=wrap;html=1;fontSize=12;glass=0;strokeWidth=1;shadow=0;" parent="WIyWlLk6GJQsqaUBKTNV-1" vertex="1">
          <mxGeometry x="160" y="690" width="120" height="40" as="geometry" />
        </mxCell>
        <mxCell id="yaYKkfdY-jvWyKNpZxuY-26" style="edgeStyle=orthogonalEdgeStyle;rounded=0;orthogonalLoop=1;jettySize=auto;html=1;exitX=0.5;exitY=1;exitDx=0;exitDy=0;entryX=0.5;entryY=1;entryDx=0;entryDy=0;" parent="WIyWlLk6GJQsqaUBKTNV-1" source="yaYKkfdY-jvWyKNpZxuY-14" target="yaYKkfdY-jvWyKNpZxuY-18" edge="1">
          <mxGeometry relative="1" as="geometry">
            <Array as="points">
              <mxPoint x="380" y="710" />
              <mxPoint x="670" y="710" />
            </Array>
          </mxGeometry>
        </mxCell>
        <mxCell id="yaYKkfdY-jvWyKNpZxuY-32" style="edgeStyle=orthogonalEdgeStyle;rounded=0;orthogonalLoop=1;jettySize=auto;html=1;exitX=0.5;exitY=0;exitDx=0;exitDy=0;" parent="WIyWlLk6GJQsqaUBKTNV-1" source="yaYKkfdY-jvWyKNpZxuY-14" edge="1">
          <mxGeometry relative="1" as="geometry">
            <mxPoint x="380" y="490" as="targetPoint" />
          </mxGeometry>
        </mxCell>
        <mxCell id="yaYKkfdY-jvWyKNpZxuY-14" value="Users own CV page" style="rounded=1;whiteSpace=wrap;html=1;fontSize=12;glass=0;strokeWidth=1;shadow=0;" parent="WIyWlLk6GJQsqaUBKTNV-1" vertex="1">
          <mxGeometry x="320" y="550" width="120" height="40" as="geometry" />
        </mxCell>
        <mxCell id="yaYKkfdY-jvWyKNpZxuY-17" style="edgeStyle=orthogonalEdgeStyle;rounded=0;orthogonalLoop=1;jettySize=auto;html=1;exitX=0.5;exitY=1;exitDx=0;exitDy=0;entryX=0.5;entryY=0;entryDx=0;entryDy=0;" parent="WIyWlLk6GJQsqaUBKTNV-1" source="yaYKkfdY-jvWyKNpZxuY-16" target="WIyWlLk6GJQsqaUBKTNV-3" edge="1">
          <mxGeometry relative="1" as="geometry" />
        </mxCell>
        <mxCell id="yaYKkfdY-jvWyKNpZxuY-19" style="edgeStyle=orthogonalEdgeStyle;rounded=0;orthogonalLoop=1;jettySize=auto;html=1;exitX=1;exitY=0.5;exitDx=0;exitDy=0;entryX=0;entryY=0.5;entryDx=0;entryDy=0;" parent="WIyWlLk6GJQsqaUBKTNV-1" source="yaYKkfdY-jvWyKNpZxuY-16" target="yaYKkfdY-jvWyKNpZxuY-18" edge="1">
          <mxGeometry relative="1" as="geometry" />
        </mxCell>
        <mxCell id="yaYKkfdY-jvWyKNpZxuY-16" value="template page" style="rounded=1;whiteSpace=wrap;html=1;fontSize=12;glass=0;strokeWidth=1;shadow=0;" parent="WIyWlLk6GJQsqaUBKTNV-1" vertex="1">
          <mxGeometry x="160" y="10" width="120" height="40" as="geometry" />
        </mxCell>
        <mxCell id="yaYKkfdY-jvWyKNpZxuY-21" style="edgeStyle=orthogonalEdgeStyle;rounded=0;orthogonalLoop=1;jettySize=auto;html=1;exitX=1;exitY=0.5;exitDx=0;exitDy=0;entryX=0;entryY=0.5;entryDx=0;entryDy=0;" parent="WIyWlLk6GJQsqaUBKTNV-1" source="yaYKkfdY-jvWyKNpZxuY-18" target="yaYKkfdY-jvWyKNpZxuY-20" edge="1">
          <mxGeometry relative="1" as="geometry" />
        </mxCell>
        <mxCell id="yaYKkfdY-jvWyKNpZxuY-18" value="search User" style="rounded=1;whiteSpace=wrap;html=1;fontSize=12;glass=0;strokeWidth=1;shadow=0;" parent="WIyWlLk6GJQsqaUBKTNV-1" vertex="1">
          <mxGeometry x="610" y="10" width="120" height="40" as="geometry" />
        </mxCell>
        <mxCell id="yaYKkfdY-jvWyKNpZxuY-23" value="no" style="edgeStyle=orthogonalEdgeStyle;rounded=0;orthogonalLoop=1;jettySize=auto;html=1;exitX=0.5;exitY=0;exitDx=0;exitDy=0;entryX=0.5;entryY=1;entryDx=0;entryDy=0;" parent="WIyWlLk6GJQsqaUBKTNV-1" source="yaYKkfdY-jvWyKNpZxuY-20" target="yaYKkfdY-jvWyKNpZxuY-22" edge="1">
          <mxGeometry y="-10" relative="1" as="geometry">
            <mxPoint as="offset" />
          </mxGeometry>
        </mxCell>
        <mxCell id="yaYKkfdY-jvWyKNpZxuY-28" value="yes" style="edgeStyle=orthogonalEdgeStyle;rounded=0;orthogonalLoop=1;jettySize=auto;html=1;exitX=1;exitY=0.5;exitDx=0;exitDy=0;entryX=0;entryY=0.5;entryDx=0;entryDy=0;" parent="WIyWlLk6GJQsqaUBKTNV-1" source="yaYKkfdY-jvWyKNpZxuY-20" target="yaYKkfdY-jvWyKNpZxuY-27" edge="1">
          <mxGeometry x="-0.1429" y="-10" relative="1" as="geometry">
            <mxPoint as="offset" />
          </mxGeometry>
        </mxCell>
        <mxCell id="yaYKkfdY-jvWyKNpZxuY-20" value="does a user under that name exist" style="rhombus;whiteSpace=wrap;html=1;" parent="WIyWlLk6GJQsqaUBKTNV-1" vertex="1">
          <mxGeometry x="800" y="-30" width="120" height="120" as="geometry" />
        </mxCell>
        <mxCell id="yaYKkfdY-jvWyKNpZxuY-24" style="edgeStyle=orthogonalEdgeStyle;rounded=0;orthogonalLoop=1;jettySize=auto;html=1;exitX=0;exitY=0.5;exitDx=0;exitDy=0;entryX=0.5;entryY=0;entryDx=0;entryDy=0;" parent="WIyWlLk6GJQsqaUBKTNV-1" source="yaYKkfdY-jvWyKNpZxuY-22" target="yaYKkfdY-jvWyKNpZxuY-18" edge="1">
          <mxGeometry relative="1" as="geometry" />
        </mxCell>
        <mxCell id="yaYKkfdY-jvWyKNpZxuY-22" value="No Users found" style="rounded=1;whiteSpace=wrap;html=1;fontSize=12;glass=0;strokeWidth=1;shadow=0;" parent="WIyWlLk6GJQsqaUBKTNV-1" vertex="1">
          <mxGeometry x="800" y="-110" width="120" height="40" as="geometry" />
        </mxCell>
        <mxCell id="yaYKkfdY-jvWyKNpZxuY-52" style="edgeStyle=orthogonalEdgeStyle;rounded=0;orthogonalLoop=1;jettySize=auto;html=1;exitX=1;exitY=0.5;exitDx=0;exitDy=0;entryX=0;entryY=0.5;entryDx=0;entryDy=0;" parent="WIyWlLk6GJQsqaUBKTNV-1" source="yaYKkfdY-jvWyKNpZxuY-27" target="yaYKkfdY-jvWyKNpZxuY-51" edge="1">
          <mxGeometry relative="1" as="geometry" />
        </mxCell>
        <mxCell id="yaYKkfdY-jvWyKNpZxuY-27" value="List of users with that name" style="rounded=1;whiteSpace=wrap;html=1;fontSize=12;glass=0;strokeWidth=1;shadow=0;" parent="WIyWlLk6GJQsqaUBKTNV-1" vertex="1">
          <mxGeometry x="990" y="10" width="120" height="40" as="geometry" />
        </mxCell>
        <mxCell id="yaYKkfdY-jvWyKNpZxuY-31" style="edgeStyle=orthogonalEdgeStyle;rounded=0;orthogonalLoop=1;jettySize=auto;html=1;exitX=0.5;exitY=0;exitDx=0;exitDy=0;entryX=0.5;entryY=0;entryDx=0;entryDy=0;" parent="WIyWlLk6GJQsqaUBKTNV-1" source="yaYKkfdY-jvWyKNpZxuY-29" target="yaYKkfdY-jvWyKNpZxuY-18" edge="1">
          <mxGeometry relative="1" as="geometry">
            <Array as="points">
              <mxPoint x="1350" y="-170" />
              <mxPoint x="670" y="-170" />
            </Array>
          </mxGeometry>
        </mxCell>
        <mxCell id="yaYKkfdY-jvWyKNpZxuY-29" value="Users CV page" style="rounded=1;whiteSpace=wrap;html=1;fontSize=12;glass=0;strokeWidth=1;shadow=0;" parent="WIyWlLk6GJQsqaUBKTNV-1" vertex="1">
          <mxGeometry x="1290" y="10" width="120" height="40" as="geometry" />
        </mxCell>
        <mxCell id="yaYKkfdY-jvWyKNpZxuY-35" style="edgeStyle=orthogonalEdgeStyle;rounded=0;orthogonalLoop=1;jettySize=auto;html=1;exitX=0.5;exitY=0;exitDx=0;exitDy=0;entryX=0.5;entryY=1;entryDx=0;entryDy=0;" parent="WIyWlLk6GJQsqaUBKTNV-1" source="yaYKkfdY-jvWyKNpZxuY-33" target="yaYKkfdY-jvWyKNpZxuY-34" edge="1">
          <mxGeometry relative="1" as="geometry" />
        </mxCell>
        <mxCell id="yaYKkfdY-jvWyKNpZxuY-41" style="edgeStyle=orthogonalEdgeStyle;rounded=0;orthogonalLoop=1;jettySize=auto;html=1;exitX=1;exitY=0.5;exitDx=0;exitDy=0;entryX=0;entryY=0.5;entryDx=0;entryDy=0;" parent="WIyWlLk6GJQsqaUBKTNV-1" source="yaYKkfdY-jvWyKNpZxuY-33" target="yaYKkfdY-jvWyKNpZxuY-39" edge="1">
          <mxGeometry relative="1" as="geometry" />
        </mxCell>
        <mxCell id="yaYKkfdY-jvWyKNpZxuY-33" value="Edit page" style="rounded=1;whiteSpace=wrap;html=1;fontSize=12;glass=0;strokeWidth=1;shadow=0;" parent="WIyWlLk6GJQsqaUBKTNV-1" vertex="1">
          <mxGeometry x="320" y="460" width="120" height="40" as="geometry" />
        </mxCell>
        <mxCell id="yaYKkfdY-jvWyKNpZxuY-36" style="edgeStyle=orthogonalEdgeStyle;rounded=0;orthogonalLoop=1;jettySize=auto;html=1;exitX=1;exitY=0.5;exitDx=0;exitDy=0;" parent="WIyWlLk6GJQsqaUBKTNV-1" source="yaYKkfdY-jvWyKNpZxuY-34" edge="1">
          <mxGeometry relative="1" as="geometry">
            <mxPoint x="480" y="400" as="targetPoint" />
          </mxGeometry>
        </mxCell>
        <mxCell id="yaYKkfdY-jvWyKNpZxuY-34" value="Save changes" style="rounded=1;whiteSpace=wrap;html=1;fontSize=12;glass=0;strokeWidth=1;shadow=0;" parent="WIyWlLk6GJQsqaUBKTNV-1" vertex="1">
          <mxGeometry x="320" y="380" width="120" height="40" as="geometry" />
        </mxCell>
        <mxCell id="yaYKkfdY-jvWyKNpZxuY-38" style="edgeStyle=orthogonalEdgeStyle;rounded=0;orthogonalLoop=1;jettySize=auto;html=1;exitX=1;exitY=0.5;exitDx=0;exitDy=0;entryX=1;entryY=0.5;entryDx=0;entryDy=0;" parent="WIyWlLk6GJQsqaUBKTNV-1" source="yaYKkfdY-jvWyKNpZxuY-37" target="yaYKkfdY-jvWyKNpZxuY-14" edge="1">
          <mxGeometry relative="1" as="geometry" />
        </mxCell>
        <mxCell id="yaYKkfdY-jvWyKNpZxuY-37" value="Update in database" style="rounded=1;whiteSpace=wrap;html=1;fontSize=12;glass=0;strokeWidth=1;shadow=0;" parent="WIyWlLk6GJQsqaUBKTNV-1" vertex="1">
          <mxGeometry x="480" y="380" width="120" height="40" as="geometry" />
        </mxCell>
        <mxCell id="yaYKkfdY-jvWyKNpZxuY-42" style="edgeStyle=orthogonalEdgeStyle;rounded=0;orthogonalLoop=1;jettySize=auto;html=1;exitX=0.5;exitY=1;exitDx=0;exitDy=0;entryX=1;entryY=0.5;entryDx=0;entryDy=0;" parent="WIyWlLk6GJQsqaUBKTNV-1" source="yaYKkfdY-jvWyKNpZxuY-39" target="yaYKkfdY-jvWyKNpZxuY-14" edge="1">
          <mxGeometry relative="1" as="geometry" />
        </mxCell>
        <mxCell id="yaYKkfdY-jvWyKNpZxuY-39" value="Cancel" style="rounded=1;whiteSpace=wrap;html=1;fontSize=12;glass=0;strokeWidth=1;shadow=0;" parent="WIyWlLk6GJQsqaUBKTNV-1" vertex="1">
          <mxGeometry x="480" y="460" width="120" height="40" as="geometry" />
        </mxCell>
        <mxCell id="yaYKkfdY-jvWyKNpZxuY-46" style="edgeStyle=orthogonalEdgeStyle;rounded=0;orthogonalLoop=1;jettySize=auto;html=1;exitX=0;exitY=0.5;exitDx=0;exitDy=0;entryX=0.5;entryY=1;entryDx=0;entryDy=0;" parent="WIyWlLk6GJQsqaUBKTNV-1" source="yaYKkfdY-jvWyKNpZxuY-43" target="yaYKkfdY-jvWyKNpZxuY-45" edge="1">
          <mxGeometry relative="1" as="geometry" />
        </mxCell>
        <mxCell id="yaYKkfdY-jvWyKNpZxuY-49" style="edgeStyle=orthogonalEdgeStyle;rounded=0;orthogonalLoop=1;jettySize=auto;html=1;exitX=1;exitY=0.5;exitDx=0;exitDy=0;entryX=0;entryY=0.5;entryDx=0;entryDy=0;" parent="WIyWlLk6GJQsqaUBKTNV-1" source="yaYKkfdY-jvWyKNpZxuY-43" target="yaYKkfdY-jvWyKNpZxuY-48" edge="1">
          <mxGeometry relative="1" as="geometry" />
        </mxCell>
        <mxCell id="yaYKkfdY-jvWyKNpZxuY-43" value="create CV page" style="rounded=1;whiteSpace=wrap;html=1;fontSize=12;glass=0;strokeWidth=1;shadow=0;" parent="WIyWlLk6GJQsqaUBKTNV-1" vertex="1">
          <mxGeometry x="160" y="790" width="120" height="40" as="geometry" />
        </mxCell>
        <mxCell id="yaYKkfdY-jvWyKNpZxuY-47" style="edgeStyle=orthogonalEdgeStyle;rounded=0;orthogonalLoop=1;jettySize=auto;html=1;exitX=1;exitY=0.5;exitDx=0;exitDy=0;entryX=0;entryY=0.5;entryDx=0;entryDy=0;" parent="WIyWlLk6GJQsqaUBKTNV-1" source="yaYKkfdY-jvWyKNpZxuY-45" target="yaYKkfdY-jvWyKNpZxuY-12" edge="1">
          <mxGeometry relative="1" as="geometry" />
        </mxCell>
        <mxCell id="yaYKkfdY-jvWyKNpZxuY-45" value="Cancel" style="rounded=1;whiteSpace=wrap;html=1;fontSize=12;glass=0;strokeWidth=1;shadow=0;" parent="WIyWlLk6GJQsqaUBKTNV-1" vertex="1">
          <mxGeometry x="20" y="690" width="120" height="40" as="geometry" />
        </mxCell>
        <mxCell id="yaYKkfdY-jvWyKNpZxuY-50" style="edgeStyle=orthogonalEdgeStyle;rounded=0;orthogonalLoop=1;jettySize=auto;html=1;exitX=0.5;exitY=0;exitDx=0;exitDy=0;entryX=1;entryY=0.5;entryDx=0;entryDy=0;curved=0;jumpStyle=arc;" parent="WIyWlLk6GJQsqaUBKTNV-1" source="yaYKkfdY-jvWyKNpZxuY-48" target="yaYKkfdY-jvWyKNpZxuY-14" edge="1">
          <mxGeometry relative="1" as="geometry" />
        </mxCell>
        <mxCell id="yaYKkfdY-jvWyKNpZxuY-48" value="Create" style="rounded=1;whiteSpace=wrap;html=1;fontSize=12;glass=0;strokeWidth=1;shadow=0;" parent="WIyWlLk6GJQsqaUBKTNV-1" vertex="1">
          <mxGeometry x="480" y="790" width="120" height="40" as="geometry" />
        </mxCell>
        <mxCell id="yaYKkfdY-jvWyKNpZxuY-53" value="no" style="edgeStyle=orthogonalEdgeStyle;rounded=0;orthogonalLoop=1;jettySize=auto;html=1;exitX=1;exitY=0.5;exitDx=0;exitDy=0;entryX=0;entryY=0.5;entryDx=0;entryDy=0;" parent="WIyWlLk6GJQsqaUBKTNV-1" source="yaYKkfdY-jvWyKNpZxuY-51" target="yaYKkfdY-jvWyKNpZxuY-29" edge="1">
          <mxGeometry x="-0.3333" y="10" relative="1" as="geometry">
            <mxPoint as="offset" />
          </mxGeometry>
        </mxCell>
        <mxCell id="yaYKkfdY-jvWyKNpZxuY-54" style="edgeStyle=orthogonalEdgeStyle;rounded=0;orthogonalLoop=1;jettySize=auto;html=1;exitX=0.5;exitY=1;exitDx=0;exitDy=0;entryX=1;entryY=0.5;entryDx=0;entryDy=0;jumpStyle=arc;" parent="WIyWlLk6GJQsqaUBKTNV-1" source="yaYKkfdY-jvWyKNpZxuY-51" target="yaYKkfdY-jvWyKNpZxuY-14" edge="1">
          <mxGeometry relative="1" as="geometry" />
        </mxCell>
        <mxCell id="N3y4UAQbAQ7QxNH8p3J4-0" value="yes" style="edgeLabel;html=1;align=center;verticalAlign=middle;resizable=0;points=[];" parent="yaYKkfdY-jvWyKNpZxuY-54" connectable="0" vertex="1">
          <mxGeometry x="-0.9629" y="-4" relative="1" as="geometry">
            <mxPoint x="-6" as="offset" />
          </mxGeometry>
        </mxCell>
        <mxCell id="yaYKkfdY-jvWyKNpZxuY-51" value="Is it the users" style="rhombus;whiteSpace=wrap;html=1;" parent="WIyWlLk6GJQsqaUBKTNV-1" vertex="1">
          <mxGeometry x="1140" y="-30" width="120" height="120" as="geometry" />
        </mxCell>
        <mxCell id="1vSe8MF5YM_5ud1emcCt-1" style="edgeStyle=orthogonalEdgeStyle;rounded=0;orthogonalLoop=1;jettySize=auto;html=1;exitX=0.5;exitY=1;exitDx=0;exitDy=0;entryX=0.5;entryY=0;entryDx=0;entryDy=0;" parent="WIyWlLk6GJQsqaUBKTNV-1" source="1vSe8MF5YM_5ud1emcCt-0" target="yaYKkfdY-jvWyKNpZxuY-16" edge="1">
          <mxGeometry relative="1" as="geometry" />
        </mxCell>
        <mxCell id="1vSe8MF5YM_5ud1emcCt-0" value="whole site" style="ellipse;whiteSpace=wrap;html=1;" parent="WIyWlLk6GJQsqaUBKTNV-1" vertex="1">
          <mxGeometry x="180" y="-110" width="80" height="80" as="geometry" />
        </mxCell>
        <mxCell id="FqBbY4PO7zHGRanGUinU-6" style="edgeStyle=orthogonalEdgeStyle;rounded=0;orthogonalLoop=1;jettySize=auto;html=1;exitX=1;exitY=0.5;exitDx=0;exitDy=0;entryX=0;entryY=0.5;entryDx=0;entryDy=0;" edge="1" parent="WIyWlLk6GJQsqaUBKTNV-1" source="FqBbY4PO7zHGRanGUinU-0" target="FqBbY4PO7zHGRanGUinU-5">
          <mxGeometry relative="1" as="geometry" />
        </mxCell>
        <mxCell id="FqBbY4PO7zHGRanGUinU-0" value="search User" style="rounded=1;whiteSpace=wrap;html=1;fontSize=12;glass=0;strokeWidth=1;shadow=0;" vertex="1" parent="WIyWlLk6GJQsqaUBKTNV-1">
          <mxGeometry x="580" y="-310" width="120" height="40" as="geometry" />
        </mxCell>
        <mxCell id="FqBbY4PO7zHGRanGUinU-2" style="edgeStyle=orthogonalEdgeStyle;rounded=0;orthogonalLoop=1;jettySize=auto;html=1;exitX=1;exitY=0.5;exitDx=0;exitDy=0;entryX=0;entryY=0.5;entryDx=0;entryDy=0;" edge="1" parent="WIyWlLk6GJQsqaUBKTNV-1" source="FqBbY4PO7zHGRanGUinU-1" target="FqBbY4PO7zHGRanGUinU-0">
          <mxGeometry relative="1" as="geometry" />
        </mxCell>
        <mxCell id="FqBbY4PO7zHGRanGUinU-1" value="Search" style="ellipse;whiteSpace=wrap;html=1;" vertex="1" parent="WIyWlLk6GJQsqaUBKTNV-1">
          <mxGeometry x="480" y="-330" width="80" height="80" as="geometry" />
        </mxCell>
        <mxCell id="FqBbY4PO7zHGRanGUinU-7" style="edgeStyle=orthogonalEdgeStyle;rounded=0;orthogonalLoop=1;jettySize=auto;html=1;exitX=1;exitY=0.5;exitDx=0;exitDy=0;entryX=0;entryY=0.5;entryDx=0;entryDy=0;" edge="1" parent="WIyWlLk6GJQsqaUBKTNV-1" source="FqBbY4PO7zHGRanGUinU-5" target="FqBbY4PO7zHGRanGUinU-13">
          <mxGeometry relative="1" as="geometry">
            <mxPoint x="910" y="-240" as="targetPoint" />
          </mxGeometry>
        </mxCell>
        <mxCell id="FqBbY4PO7zHGRanGUinU-5" value="call api with search perimeter" style="rounded=0;whiteSpace=wrap;html=1;" vertex="1" parent="WIyWlLk6GJQsqaUBKTNV-1">
          <mxGeometry x="750" y="-320" width="120" height="60" as="geometry" />
        </mxCell>
        <mxCell id="FqBbY4PO7zHGRanGUinU-10" style="edgeStyle=orthogonalEdgeStyle;rounded=0;orthogonalLoop=1;jettySize=auto;html=1;exitX=0;exitY=0.5;exitDx=0;exitDy=0;entryX=0.5;entryY=0;entryDx=0;entryDy=0;" edge="1" parent="WIyWlLk6GJQsqaUBKTNV-1" source="FqBbY4PO7zHGRanGUinU-14" target="FqBbY4PO7zHGRanGUinU-0">
          <mxGeometry relative="1" as="geometry">
            <mxPoint x="920.0000000000005" y="-420" as="sourcePoint" />
          </mxGeometry>
        </mxCell>
        <mxCell id="FqBbY4PO7zHGRanGUinU-11" value="no" style="edgeStyle=orthogonalEdgeStyle;rounded=0;orthogonalLoop=1;jettySize=auto;html=1;exitX=0.5;exitY=0;exitDx=0;exitDy=0;entryX=0.5;entryY=1;entryDx=0;entryDy=0;" edge="1" parent="WIyWlLk6GJQsqaUBKTNV-1" source="FqBbY4PO7zHGRanGUinU-13" target="FqBbY4PO7zHGRanGUinU-14">
          <mxGeometry y="-10" relative="1" as="geometry">
            <mxPoint as="offset" />
          </mxGeometry>
        </mxCell>
        <mxCell id="FqBbY4PO7zHGRanGUinU-12" value="yes" style="edgeStyle=orthogonalEdgeStyle;rounded=0;orthogonalLoop=1;jettySize=auto;html=1;exitX=1;exitY=0.5;exitDx=0;exitDy=0;entryX=0;entryY=0.5;entryDx=0;entryDy=0;" edge="1" parent="WIyWlLk6GJQsqaUBKTNV-1" source="FqBbY4PO7zHGRanGUinU-13" target="FqBbY4PO7zHGRanGUinU-16">
          <mxGeometry x="-0.1429" y="-10" relative="1" as="geometry">
            <mxPoint as="offset" />
          </mxGeometry>
        </mxCell>
        <mxCell id="FqBbY4PO7zHGRanGUinU-13" value="does a user under that name exist" style="rhombus;whiteSpace=wrap;html=1;" vertex="1" parent="WIyWlLk6GJQsqaUBKTNV-1">
          <mxGeometry x="920" y="-350" width="120" height="120" as="geometry" />
        </mxCell>
        <mxCell id="FqBbY4PO7zHGRanGUinU-14" value="No User found" style="rounded=1;whiteSpace=wrap;html=1;fontSize=12;glass=0;strokeWidth=1;shadow=0;" vertex="1" parent="WIyWlLk6GJQsqaUBKTNV-1">
          <mxGeometry x="920" y="-430" width="120" height="40" as="geometry" />
        </mxCell>
        <mxCell id="FqBbY4PO7zHGRanGUinU-18" style="edgeStyle=orthogonalEdgeStyle;rounded=0;orthogonalLoop=1;jettySize=auto;html=1;exitX=1;exitY=0.5;exitDx=0;exitDy=0;entryX=0;entryY=0.5;entryDx=0;entryDy=0;" edge="1" parent="WIyWlLk6GJQsqaUBKTNV-1" source="FqBbY4PO7zHGRanGUinU-16" target="FqBbY4PO7zHGRanGUinU-17">
          <mxGeometry relative="1" as="geometry" />
        </mxCell>
        <mxCell id="FqBbY4PO7zHGRanGUinU-16" value="List of users with that name" style="rounded=1;whiteSpace=wrap;html=1;fontSize=12;glass=0;strokeWidth=1;shadow=0;" vertex="1" parent="WIyWlLk6GJQsqaUBKTNV-1">
          <mxGeometry x="1110" y="-310" width="120" height="40" as="geometry" />
        </mxCell>
        <mxCell id="FqBbY4PO7zHGRanGUinU-17" value="Users CV page" style="rounded=1;whiteSpace=wrap;html=1;fontSize=12;glass=0;strokeWidth=1;shadow=0;" vertex="1" parent="WIyWlLk6GJQsqaUBKTNV-1">
          <mxGeometry x="1261" y="-310" width="120" height="40" as="geometry" />
        </mxCell>
        <mxCell id="FqBbY4PO7zHGRanGUinU-19" value="" style="rounded=0;html=1;jettySize=auto;orthogonalLoop=1;fontSize=11;endArrow=block;endFill=0;endSize=8;strokeWidth=1;shadow=0;labelBackgroundColor=none;edgeStyle=orthogonalEdgeStyle;" edge="1" parent="WIyWlLk6GJQsqaUBKTNV-1" source="FqBbY4PO7zHGRanGUinU-20" target="FqBbY4PO7zHGRanGUinU-23">
          <mxGeometry relative="1" as="geometry" />
        </mxCell>
        <mxCell id="FqBbY4PO7zHGRanGUinU-20" value="User Login" style="rounded=1;whiteSpace=wrap;html=1;fontSize=12;glass=0;strokeWidth=1;shadow=0;" vertex="1" parent="WIyWlLk6GJQsqaUBKTNV-1">
          <mxGeometry x="270" y="-1460" width="120" height="40" as="geometry" />
        </mxCell>
        <mxCell id="FqBbY4PO7zHGRanGUinU-21" value="Yes" style="rounded=0;html=1;jettySize=auto;orthogonalLoop=1;fontSize=11;endArrow=block;endFill=0;endSize=8;strokeWidth=1;shadow=0;labelBackgroundColor=none;edgeStyle=orthogonalEdgeStyle;" edge="1" parent="WIyWlLk6GJQsqaUBKTNV-1" source="FqBbY4PO7zHGRanGUinU-23">
          <mxGeometry x="-0.337" y="10" relative="1" as="geometry">
            <mxPoint as="offset" />
            <mxPoint x="330" y="-1180" as="targetPoint" />
          </mxGeometry>
        </mxCell>
        <mxCell id="FqBbY4PO7zHGRanGUinU-22" value="No" style="edgeStyle=orthogonalEdgeStyle;rounded=0;html=1;jettySize=auto;orthogonalLoop=1;fontSize=11;endArrow=block;endFill=0;endSize=8;strokeWidth=1;shadow=0;labelBackgroundColor=none;" edge="1" parent="WIyWlLk6GJQsqaUBKTNV-1" source="FqBbY4PO7zHGRanGUinU-23" target="FqBbY4PO7zHGRanGUinU-25">
          <mxGeometry y="10" relative="1" as="geometry">
            <mxPoint as="offset" />
          </mxGeometry>
        </mxCell>
        <mxCell id="FqBbY4PO7zHGRanGUinU-23" value="Does the User&lt;div&gt;have an account&lt;/div&gt;" style="rhombus;whiteSpace=wrap;html=1;shadow=0;fontFamily=Helvetica;fontSize=12;align=center;strokeWidth=1;spacing=6;spacingTop=-4;" vertex="1" parent="WIyWlLk6GJQsqaUBKTNV-1">
          <mxGeometry x="270" y="-1370" width="120" height="100" as="geometry" />
        </mxCell>
        <mxCell id="FqBbY4PO7zHGRanGUinU-24" style="edgeStyle=orthogonalEdgeStyle;rounded=0;orthogonalLoop=1;jettySize=auto;html=1;exitX=0.5;exitY=1;exitDx=0;exitDy=0;entryX=0.5;entryY=0;entryDx=0;entryDy=0;" edge="1" parent="WIyWlLk6GJQsqaUBKTNV-1" source="FqBbY4PO7zHGRanGUinU-25" target="FqBbY4PO7zHGRanGUinU-39">
          <mxGeometry relative="1" as="geometry">
            <mxPoint x="680" y="-1365" as="targetPoint" />
          </mxGeometry>
        </mxCell>
        <mxCell id="FqBbY4PO7zHGRanGUinU-25" value="Create account" style="rounded=1;whiteSpace=wrap;html=1;fontSize=12;glass=0;strokeWidth=1;shadow=0;" vertex="1" parent="WIyWlLk6GJQsqaUBKTNV-1">
          <mxGeometry x="620" y="-1340" width="120" height="40" as="geometry" />
        </mxCell>
        <mxCell id="FqBbY4PO7zHGRanGUinU-60" style="edgeStyle=orthogonalEdgeStyle;rounded=0;orthogonalLoop=1;jettySize=auto;html=1;exitX=0.5;exitY=1;exitDx=0;exitDy=0;entryX=0.5;entryY=0;entryDx=0;entryDy=0;" edge="1" parent="WIyWlLk6GJQsqaUBKTNV-1" source="FqBbY4PO7zHGRanGUinU-27" target="FqBbY4PO7zHGRanGUinU-59">
          <mxGeometry relative="1" as="geometry" />
        </mxCell>
        <mxCell id="FqBbY4PO7zHGRanGUinU-27" value="Login" style="rounded=1;whiteSpace=wrap;html=1;fontSize=12;glass=0;strokeWidth=1;shadow=0;" vertex="1" parent="WIyWlLk6GJQsqaUBKTNV-1">
          <mxGeometry x="270" y="-1180" width="120" height="40" as="geometry" />
        </mxCell>
        <mxCell id="FqBbY4PO7zHGRanGUinU-28" style="edgeStyle=orthogonalEdgeStyle;rounded=0;orthogonalLoop=1;jettySize=auto;html=1;exitX=0;exitY=0.5;exitDx=0;exitDy=0;entryX=0.5;entryY=1;entryDx=0;entryDy=0;" edge="1" parent="WIyWlLk6GJQsqaUBKTNV-1" source="FqBbY4PO7zHGRanGUinU-32" target="FqBbY4PO7zHGRanGUinU-34">
          <mxGeometry relative="1" as="geometry">
            <mxPoint x="220" y="-1015" as="targetPoint" />
          </mxGeometry>
        </mxCell>
        <mxCell id="FqBbY4PO7zHGRanGUinU-29" value="no" style="edgeLabel;html=1;align=center;verticalAlign=middle;resizable=0;points=[];" connectable="0" vertex="1" parent="FqBbY4PO7zHGRanGUinU-28">
          <mxGeometry x="-0.3677" y="-3" relative="1" as="geometry">
            <mxPoint x="7" y="14" as="offset" />
          </mxGeometry>
        </mxCell>
        <mxCell id="FqBbY4PO7zHGRanGUinU-30" style="edgeStyle=orthogonalEdgeStyle;rounded=0;orthogonalLoop=1;jettySize=auto;html=1;exitX=0.5;exitY=1;exitDx=0;exitDy=0;entryX=0.5;entryY=0;entryDx=0;entryDy=0;" edge="1" parent="WIyWlLk6GJQsqaUBKTNV-1" source="FqBbY4PO7zHGRanGUinU-32" target="FqBbY4PO7zHGRanGUinU-42">
          <mxGeometry relative="1" as="geometry">
            <mxPoint x="330" y="-840" as="sourcePoint" />
            <mxPoint x="450" y="-890" as="targetPoint" />
          </mxGeometry>
        </mxCell>
        <mxCell id="FqBbY4PO7zHGRanGUinU-31" value="yes" style="edgeLabel;html=1;align=center;verticalAlign=middle;resizable=0;points=[];" connectable="0" vertex="1" parent="FqBbY4PO7zHGRanGUinU-30">
          <mxGeometry x="-0.2" y="2" relative="1" as="geometry">
            <mxPoint x="18" as="offset" />
          </mxGeometry>
        </mxCell>
        <mxCell id="FqBbY4PO7zHGRanGUinU-32" value="did the user with the entered Username and Password exist?" style="rhombus;whiteSpace=wrap;html=1;" vertex="1" parent="WIyWlLk6GJQsqaUBKTNV-1">
          <mxGeometry x="255" y="-1020" width="150" height="150" as="geometry" />
        </mxCell>
        <mxCell id="FqBbY4PO7zHGRanGUinU-33" style="edgeStyle=orthogonalEdgeStyle;rounded=0;orthogonalLoop=1;jettySize=auto;html=1;exitX=0.5;exitY=0;exitDx=0;exitDy=0;entryX=0;entryY=0.5;entryDx=0;entryDy=0;" edge="1" parent="WIyWlLk6GJQsqaUBKTNV-1" source="FqBbY4PO7zHGRanGUinU-34" target="FqBbY4PO7zHGRanGUinU-27">
          <mxGeometry relative="1" as="geometry" />
        </mxCell>
        <mxCell id="FqBbY4PO7zHGRanGUinU-34" value="Invalid Username or Password" style="rounded=1;whiteSpace=wrap;html=1;fontSize=12;glass=0;strokeWidth=1;shadow=0;" vertex="1" parent="WIyWlLk6GJQsqaUBKTNV-1">
          <mxGeometry x="120" y="-1100" width="120" height="40" as="geometry" />
        </mxCell>
        <mxCell id="FqBbY4PO7zHGRanGUinU-35" style="edgeStyle=orthogonalEdgeStyle;rounded=0;orthogonalLoop=1;jettySize=auto;html=1;exitX=0.5;exitY=0;exitDx=0;exitDy=0;entryX=1;entryY=0.5;entryDx=0;entryDy=0;" edge="1" parent="WIyWlLk6GJQsqaUBKTNV-1" source="FqBbY4PO7zHGRanGUinU-36" target="FqBbY4PO7zHGRanGUinU-25">
          <mxGeometry relative="1" as="geometry" />
        </mxCell>
        <mxCell id="FqBbY4PO7zHGRanGUinU-36" value="Error message" style="rounded=1;whiteSpace=wrap;html=1;fontSize=12;glass=0;strokeWidth=1;shadow=0;" vertex="1" parent="WIyWlLk6GJQsqaUBKTNV-1">
          <mxGeometry x="780" y="-1180" width="120" height="40" as="geometry" />
        </mxCell>
        <mxCell id="FqBbY4PO7zHGRanGUinU-37" value="no" style="edgeStyle=orthogonalEdgeStyle;rounded=0;orthogonalLoop=1;jettySize=auto;html=1;exitX=1;exitY=0.5;exitDx=0;exitDy=0;entryX=0;entryY=0.5;entryDx=0;entryDy=0;" edge="1" parent="WIyWlLk6GJQsqaUBKTNV-1" source="FqBbY4PO7zHGRanGUinU-39" target="FqBbY4PO7zHGRanGUinU-36">
          <mxGeometry y="15" relative="1" as="geometry">
            <mxPoint as="offset" />
          </mxGeometry>
        </mxCell>
        <mxCell id="FqBbY4PO7zHGRanGUinU-38" value="yes" style="edgeStyle=orthogonalEdgeStyle;rounded=0;orthogonalLoop=1;jettySize=auto;html=1;exitX=0;exitY=0.5;exitDx=0;exitDy=0;entryX=1;entryY=0.5;entryDx=0;entryDy=0;" edge="1" parent="WIyWlLk6GJQsqaUBKTNV-1" source="FqBbY4PO7zHGRanGUinU-39" target="FqBbY4PO7zHGRanGUinU-62">
          <mxGeometry y="-10" relative="1" as="geometry">
            <mxPoint as="offset" />
            <mxPoint x="590" y="-1160" as="targetPoint" />
          </mxGeometry>
        </mxCell>
        <mxCell id="FqBbY4PO7zHGRanGUinU-39" value="is the credentials vallid" style="rhombus;whiteSpace=wrap;html=1;" vertex="1" parent="WIyWlLk6GJQsqaUBKTNV-1">
          <mxGeometry x="620" y="-1215" width="120" height="110" as="geometry" />
        </mxCell>
        <mxCell id="FqBbY4PO7zHGRanGUinU-40" value="no" style="edgeStyle=orthogonalEdgeStyle;rounded=0;orthogonalLoop=1;jettySize=auto;html=1;exitX=0.5;exitY=1;exitDx=0;exitDy=0;entryX=0.5;entryY=0;entryDx=0;entryDy=0;" edge="1" parent="WIyWlLk6GJQsqaUBKTNV-1" source="FqBbY4PO7zHGRanGUinU-42" target="FqBbY4PO7zHGRanGUinU-43">
          <mxGeometry y="10" relative="1" as="geometry">
            <mxPoint as="offset" />
          </mxGeometry>
        </mxCell>
        <mxCell id="FqBbY4PO7zHGRanGUinU-41" value="yes" style="edgeStyle=orthogonalEdgeStyle;rounded=0;orthogonalLoop=1;jettySize=auto;html=1;exitX=1;exitY=0.5;exitDx=0;exitDy=0;entryX=0;entryY=0.5;entryDx=0;entryDy=0;" edge="1" parent="WIyWlLk6GJQsqaUBKTNV-1" source="FqBbY4PO7zHGRanGUinU-42" target="FqBbY4PO7zHGRanGUinU-45">
          <mxGeometry y="10" relative="1" as="geometry">
            <mxPoint as="offset" />
          </mxGeometry>
        </mxCell>
        <mxCell id="FqBbY4PO7zHGRanGUinU-42" value="does the user have a page" style="rhombus;whiteSpace=wrap;html=1;" vertex="1" parent="WIyWlLk6GJQsqaUBKTNV-1">
          <mxGeometry x="270" y="-850" width="120" height="120" as="geometry" />
        </mxCell>
        <mxCell id="FqBbY4PO7zHGRanGUinU-43" value="template page" style="rounded=1;whiteSpace=wrap;html=1;fontSize=12;glass=0;strokeWidth=1;shadow=0;" vertex="1" parent="WIyWlLk6GJQsqaUBKTNV-1">
          <mxGeometry x="270" y="-670" width="120" height="40" as="geometry" />
        </mxCell>
        <mxCell id="FqBbY4PO7zHGRanGUinU-45" value="Users own CV page" style="rounded=1;whiteSpace=wrap;html=1;fontSize=12;glass=0;strokeWidth=1;shadow=0;" vertex="1" parent="WIyWlLk6GJQsqaUBKTNV-1">
          <mxGeometry x="430" y="-810" width="120" height="40" as="geometry" />
        </mxCell>
        <mxCell id="FqBbY4PO7zHGRanGUinU-58" style="edgeStyle=orthogonalEdgeStyle;rounded=0;orthogonalLoop=1;jettySize=auto;html=1;exitX=0.5;exitY=1;exitDx=0;exitDy=0;entryX=0.5;entryY=0;entryDx=0;entryDy=0;" edge="1" parent="WIyWlLk6GJQsqaUBKTNV-1" source="FqBbY4PO7zHGRanGUinU-57" target="FqBbY4PO7zHGRanGUinU-20">
          <mxGeometry relative="1" as="geometry" />
        </mxCell>
        <mxCell id="FqBbY4PO7zHGRanGUinU-57" value="Login / signup" style="ellipse;whiteSpace=wrap;html=1;aspect=fixed;" vertex="1" parent="WIyWlLk6GJQsqaUBKTNV-1">
          <mxGeometry x="290" y="-1590" width="80" height="80" as="geometry" />
        </mxCell>
        <mxCell id="FqBbY4PO7zHGRanGUinU-61" style="edgeStyle=orthogonalEdgeStyle;rounded=0;orthogonalLoop=1;jettySize=auto;html=1;exitX=0.5;exitY=1;exitDx=0;exitDy=0;entryX=0.5;entryY=0;entryDx=0;entryDy=0;" edge="1" parent="WIyWlLk6GJQsqaUBKTNV-1" source="FqBbY4PO7zHGRanGUinU-59" target="FqBbY4PO7zHGRanGUinU-32">
          <mxGeometry relative="1" as="geometry" />
        </mxCell>
        <mxCell id="FqBbY4PO7zHGRanGUinU-59" value="call api with Login Credentials" style="rounded=0;whiteSpace=wrap;html=1;" vertex="1" parent="WIyWlLk6GJQsqaUBKTNV-1">
          <mxGeometry x="270" y="-1110" width="120" height="60" as="geometry" />
        </mxCell>
        <mxCell id="FqBbY4PO7zHGRanGUinU-63" style="edgeStyle=orthogonalEdgeStyle;rounded=0;orthogonalLoop=1;jettySize=auto;html=1;exitX=0;exitY=0.5;exitDx=0;exitDy=0;entryX=1;entryY=0.5;entryDx=0;entryDy=0;" edge="1" parent="WIyWlLk6GJQsqaUBKTNV-1" source="FqBbY4PO7zHGRanGUinU-62" target="FqBbY4PO7zHGRanGUinU-27">
          <mxGeometry relative="1" as="geometry" />
        </mxCell>
        <mxCell id="FqBbY4PO7zHGRanGUinU-62" value="call api to create User in DB" style="rounded=0;whiteSpace=wrap;html=1;" vertex="1" parent="WIyWlLk6GJQsqaUBKTNV-1">
          <mxGeometry x="430" y="-1190" width="120" height="60" as="geometry" />
        </mxCell>
        <mxCell id="FqBbY4PO7zHGRanGUinU-86" style="edgeStyle=orthogonalEdgeStyle;rounded=0;orthogonalLoop=1;jettySize=auto;html=1;exitX=1;exitY=0.5;exitDx=0;exitDy=0;entryX=0;entryY=0.5;entryDx=0;entryDy=0;" edge="1" parent="WIyWlLk6GJQsqaUBKTNV-1" source="FqBbY4PO7zHGRanGUinU-67" target="FqBbY4PO7zHGRanGUinU-85">
          <mxGeometry relative="1" as="geometry" />
        </mxCell>
        <mxCell id="FqBbY4PO7zHGRanGUinU-67" value="CV Creation / edit" style="ellipse;whiteSpace=wrap;html=1;" vertex="1" parent="WIyWlLk6GJQsqaUBKTNV-1">
          <mxGeometry x="670" y="-560" width="80" height="80" as="geometry" />
        </mxCell>
        <mxCell id="FqBbY4PO7zHGRanGUinU-81" value="no" style="edgeStyle=orthogonalEdgeStyle;rounded=0;orthogonalLoop=1;jettySize=auto;html=1;exitX=1;exitY=0.5;exitDx=0;exitDy=0;entryX=0;entryY=0.5;entryDx=0;entryDy=0;" edge="1" parent="WIyWlLk6GJQsqaUBKTNV-1">
          <mxGeometry y="-10" relative="1" as="geometry">
            <mxPoint x="1209" y="-520" as="targetPoint" />
            <mxPoint x="1099" y="-520" as="sourcePoint" />
            <mxPoint y="-20" as="offset" />
          </mxGeometry>
        </mxCell>
        <mxCell id="FqBbY4PO7zHGRanGUinU-79" value="does the user have a page" style="rhombus;whiteSpace=wrap;html=1;" vertex="1" parent="WIyWlLk6GJQsqaUBKTNV-1">
          <mxGeometry x="980" y="-580" width="120" height="120" as="geometry" />
        </mxCell>
        <mxCell id="FqBbY4PO7zHGRanGUinU-89" style="edgeStyle=orthogonalEdgeStyle;rounded=0;orthogonalLoop=1;jettySize=auto;html=1;exitX=0.5;exitY=0;exitDx=0;exitDy=0;entryX=0.5;entryY=1;entryDx=0;entryDy=0;" edge="1" parent="WIyWlLk6GJQsqaUBKTNV-1" source="FqBbY4PO7zHGRanGUinU-82" target="FqBbY4PO7zHGRanGUinU-88">
          <mxGeometry relative="1" as="geometry" />
        </mxCell>
        <mxCell id="FqBbY4PO7zHGRanGUinU-82" value="template page" style="rounded=1;whiteSpace=wrap;html=1;fontSize=12;glass=0;strokeWidth=1;shadow=0;" vertex="1" parent="WIyWlLk6GJQsqaUBKTNV-1">
          <mxGeometry x="1210" y="-540" width="120" height="40" as="geometry" />
        </mxCell>
        <mxCell id="FqBbY4PO7zHGRanGUinU-83" value="yes" style="edgeStyle=orthogonalEdgeStyle;rounded=0;orthogonalLoop=1;jettySize=auto;html=1;exitX=0.5;exitY=0;exitDx=0;exitDy=0;entryX=0.5;entryY=1;entryDx=0;entryDy=0;" edge="1" parent="WIyWlLk6GJQsqaUBKTNV-1" target="FqBbY4PO7zHGRanGUinU-84" source="FqBbY4PO7zHGRanGUinU-79">
          <mxGeometry y="10" relative="1" as="geometry">
            <mxPoint as="offset" />
            <mxPoint x="940" y="-650" as="sourcePoint" />
          </mxGeometry>
        </mxCell>
        <mxCell id="FqBbY4PO7zHGRanGUinU-101" style="edgeStyle=orthogonalEdgeStyle;rounded=0;orthogonalLoop=1;jettySize=auto;html=1;exitX=1;exitY=0.5;exitDx=0;exitDy=0;entryX=0;entryY=0.5;entryDx=0;entryDy=0;" edge="1" parent="WIyWlLk6GJQsqaUBKTNV-1" source="FqBbY4PO7zHGRanGUinU-84" target="FqBbY4PO7zHGRanGUinU-88">
          <mxGeometry relative="1" as="geometry" />
        </mxCell>
        <mxCell id="FqBbY4PO7zHGRanGUinU-84" value="Users own CV page" style="rounded=1;whiteSpace=wrap;html=1;fontSize=12;glass=0;strokeWidth=1;shadow=0;" vertex="1" parent="WIyWlLk6GJQsqaUBKTNV-1">
          <mxGeometry x="980" y="-670" width="120" height="40" as="geometry" />
        </mxCell>
        <mxCell id="FqBbY4PO7zHGRanGUinU-87" style="edgeStyle=orthogonalEdgeStyle;rounded=0;orthogonalLoop=1;jettySize=auto;html=1;exitX=1;exitY=0.5;exitDx=0;exitDy=0;entryX=0;entryY=0.5;entryDx=0;entryDy=0;" edge="1" parent="WIyWlLk6GJQsqaUBKTNV-1" source="FqBbY4PO7zHGRanGUinU-85" target="FqBbY4PO7zHGRanGUinU-79">
          <mxGeometry relative="1" as="geometry" />
        </mxCell>
        <mxCell id="FqBbY4PO7zHGRanGUinU-85" value="call api when user login to look for a page for that user" style="rounded=0;whiteSpace=wrap;html=1;" vertex="1" parent="WIyWlLk6GJQsqaUBKTNV-1">
          <mxGeometry x="810" y="-550" width="120" height="60" as="geometry" />
        </mxCell>
        <mxCell id="FqBbY4PO7zHGRanGUinU-93" style="edgeStyle=orthogonalEdgeStyle;rounded=0;orthogonalLoop=1;jettySize=auto;html=1;exitX=1;exitY=0.5;exitDx=0;exitDy=0;entryX=0;entryY=0.5;entryDx=0;entryDy=0;" edge="1" parent="WIyWlLk6GJQsqaUBKTNV-1" source="FqBbY4PO7zHGRanGUinU-88" target="FqBbY4PO7zHGRanGUinU-92">
          <mxGeometry relative="1" as="geometry" />
        </mxCell>
        <mxCell id="FqBbY4PO7zHGRanGUinU-95" style="edgeStyle=orthogonalEdgeStyle;rounded=0;orthogonalLoop=1;jettySize=auto;html=1;exitX=0.5;exitY=0;exitDx=0;exitDy=0;entryX=0.5;entryY=1;entryDx=0;entryDy=0;" edge="1" parent="WIyWlLk6GJQsqaUBKTNV-1" source="FqBbY4PO7zHGRanGUinU-88" target="FqBbY4PO7zHGRanGUinU-91">
          <mxGeometry relative="1" as="geometry" />
        </mxCell>
        <mxCell id="FqBbY4PO7zHGRanGUinU-88" value="Create / Update page popup" style="rounded=1;whiteSpace=wrap;html=1;fontSize=12;glass=0;strokeWidth=1;shadow=0;" vertex="1" parent="WIyWlLk6GJQsqaUBKTNV-1">
          <mxGeometry x="1210" y="-670" width="120" height="40" as="geometry" />
        </mxCell>
        <mxCell id="FqBbY4PO7zHGRanGUinU-97" style="edgeStyle=orthogonalEdgeStyle;rounded=0;orthogonalLoop=1;jettySize=auto;html=1;exitX=0;exitY=0.5;exitDx=0;exitDy=0;entryX=1;entryY=0.5;entryDx=0;entryDy=0;" edge="1" parent="WIyWlLk6GJQsqaUBKTNV-1" source="FqBbY4PO7zHGRanGUinU-91" target="FqBbY4PO7zHGRanGUinU-96">
          <mxGeometry relative="1" as="geometry" />
        </mxCell>
        <mxCell id="FqBbY4PO7zHGRanGUinU-91" value="Create / Update" style="rounded=1;whiteSpace=wrap;html=1;fontSize=12;glass=0;strokeWidth=1;shadow=0;" vertex="1" parent="WIyWlLk6GJQsqaUBKTNV-1">
          <mxGeometry x="1210" y="-750" width="120" height="40" as="geometry" />
        </mxCell>
        <mxCell id="FqBbY4PO7zHGRanGUinU-94" style="edgeStyle=orthogonalEdgeStyle;rounded=0;orthogonalLoop=1;jettySize=auto;html=1;exitX=0.5;exitY=1;exitDx=0;exitDy=0;entryX=1;entryY=0.5;entryDx=0;entryDy=0;" edge="1" parent="WIyWlLk6GJQsqaUBKTNV-1" source="FqBbY4PO7zHGRanGUinU-92" target="FqBbY4PO7zHGRanGUinU-82">
          <mxGeometry relative="1" as="geometry" />
        </mxCell>
        <mxCell id="FqBbY4PO7zHGRanGUinU-92" value="Cancel" style="rounded=1;whiteSpace=wrap;html=1;fontSize=12;glass=0;strokeWidth=1;shadow=0;" vertex="1" parent="WIyWlLk6GJQsqaUBKTNV-1">
          <mxGeometry x="1360" y="-670" width="120" height="40" as="geometry" />
        </mxCell>
        <mxCell id="FqBbY4PO7zHGRanGUinU-98" style="edgeStyle=orthogonalEdgeStyle;rounded=0;orthogonalLoop=1;jettySize=auto;html=1;exitX=0.5;exitY=1;exitDx=0;exitDy=0;entryX=0.5;entryY=0;entryDx=0;entryDy=0;" edge="1" parent="WIyWlLk6GJQsqaUBKTNV-1" source="FqBbY4PO7zHGRanGUinU-96" target="FqBbY4PO7zHGRanGUinU-84">
          <mxGeometry relative="1" as="geometry" />
        </mxCell>
        <mxCell id="FqBbY4PO7zHGRanGUinU-96" value="call api to create / Update User page in DB" style="rounded=0;whiteSpace=wrap;html=1;" vertex="1" parent="WIyWlLk6GJQsqaUBKTNV-1">
          <mxGeometry x="980" y="-760" width="120" height="60" as="geometry" />
        </mxCell>
      </root>
    </mxGraphModel>
  </diagram>
</mxfile>
